{"asset":{"version":"2.0","generator":"THREE.GLTFExporter r185"},"scenes":[{"nodes":[0,1,2]}],"scene":0,"nodes":[{"matrix":[1,0,0,0,0,1.2,0,0,0,0,0.8,0,0,0.22,0,1],"mesh":0},{"matrix":[1,0,0,0,0,1,0,0,0,0,1,0,0,0.52,0,1],"mesh":1},{"matrix":[1,0,0,0,0,1,0,0,0,0,1,0,0,0.75,0,1],"mesh":2}],"bufferViews":[{"buffer":0,"byteOffset":0,"byteLength":2652,"target":34962,"byteStride":12},{"buffer":0,"byteOffset":2652,"byteLength":2652,"target":34962,"byteStride":12},{"buffer":0,"byteOffset":5304,"byteLength":1768,"target":34962,"byteStride":8},{"buffer":0,"byteOffset":7072,"byteLength":2112,"target":34963},{"buffer":0,"byteOffset":9184,"byteLength":2652,"target":34962,"byteStride":12},{"buffer":0,"byteOffset":11836,"byteLength":2652,"target":34962,"byteStride":12},{"buffer":0,"byteOffset":14488,"byteLength":1768,"target":34962,"byteStride":8},{"buffer":0,"byteOffset":16256,"byteLength":2112,"target":34963},{"buffer":0,"byteOffset":18368,"byteLength":276,"target":34962,"byteStride":12},{"buffer":0,"byteOffset":18644,"byteLength":276,"target":34962,"byteStride":12},{"buffer":0,"byteOffset":18920,"byteLength":184,"target":34962,"byteStride":8},{"buffer":0,"byteOffset":19104,"byteLength":60,"target":34963}],"buffers":[{"byteLength":19164,"uri":"data:application/octet-stream;base64,"}],"accessors":[{"bufferView":0,"componentType":5126,"count":221,"max":[0.2199999988079071,0.2199999988079071,0.2199999988079071],"min":[-0.2199999988079071,-0.2199999988079071,-0.2199999988079071],"type":"VEC3"},{"bufferView":1,"componentType":5126,"count":221,"max":[1,1,1],"min":[-1,-1,-1],"type":"VEC3"},{"bufferView":2,"componentType":5126,"count":221,"max":[1.03125,1],"min":[-0.03125,0],"type":"VEC2"},{"bufferView":3,"componentType":5123,"count":1056,"max":[220],"min":[0],"type":"SCALAR"},{"bufferView":4,"componentType":5126,"count":221,"max":[0.1599999964237213,0.1599999964237213,0.1599999964237213],"min":[-0.1599999964237213,-0.1599999964237213,-0.1599999964237213],"type":"VEC3"},{"bufferView":5,"componentType":5126,"count":221,"max":[1,1,1],"min":[-1,-1,-1],"type":"VEC3"},{"bufferView":6,"componentType":5126,"count":221,"max":[1.03125,1],"min":[-0.03125,0],"type":"VEC2"},{"bufferView":7,"componentType":5123,"count":1056,"max":[220],"min":[0],"type":"SCALAR"},{"bufferView":8,"componentType":5126,"count":23,"max":[0.09510564804077148,0.09000000357627869,0.10000000149011612],"min":[-0.09510564804077148,-0.09000000357627869,-0.08090169727802277],"type":"VEC3"},{"bufferView":9,"componentType":5126,"count":23,"max":[0.8313729763031006,0.4856429398059845,0.8741572499275208],"min":[-0.8313729763031006,-1,-0.7072080969810486],"type":"VEC3"},{"bufferView":10,"componentType":5126,"count":23,"max":[1,1],"min":[0,0],"type":"VEC2"},{"bufferView":11,"componentType":5123,"count":30,"max":[22],"min":[1],"type":"SCALAR"}],"materials":[{"pbrMetallicRoughness":{"baseColorFactor":[0.20155625378383743,0.04231141061442144,0.8468732315065057,1],"metallicFactor":0,"roughnessFactor":1}},{"pbrMetallicRoughness":{"baseColorFactor":[1,0.6583748172725346,0.3915724777393922,1],"metallicFactor":0,"roughnessFactor":1}},{"pbrMetallicRoughness":{"baseColorFactor":[0.9559733532482866,0.6038273388475408,0.007499032040460618,1],"metallicFactor":0,"roughnessFactor":1}}],"meshes":[{"primitives":[{"mode":4,"attributes":{"POSITION":0,"NORMAL":1,"TEXCOORD_0":2},"indices":3,"material":0}]},{"primitives":[{"mode":4,"attributes":{"POSITION":4,"NORMAL":5,"TEXCOORD_0":6},"indices":7,"material":1}]},{"primitives":[{"mode":4,"attributes":{"POSITION":8,"NORMAL":9,"TEXCOORD_0":10},"indices":11,"material":2}]}]}